<svg width="486" height="206" viewBox="0 0 486 206" fill="none" xmlns="http://www.w3.org/2000/svg">
<path d="M72.8952 20.2069L43.8236 95.2329C48.8706 95.2329 52.3109 94.3742 54.14 92.659C55.9673 90.9462 58.3562 86.288 61.3052 78.6776L78.4745 34.3688C80.4769 29.2049 81.5645 25.8899 81.7402 24.4389C81.9148 22.9769 81.4459 21.9111 80.3173 21.2277C79.198 20.5483 76.7226 20.2069 72.8952 20.2069ZM45.0933 0.635329H71.5322C88.5973 0.635329 99.8831 1.29394 105.389 2.6106C110.893 3.92725 114.634 6.0911 116.6 9.09754C118.568 12.1092 119.23 15.4599 118.586 19.1451C117.936 22.8425 115.519 30.0884 111.33 40.9013L95.8351 80.8847C91.8648 91.1324 88.6364 97.9844 86.1489 101.442C83.6626 104.9 80.6129 107.6 77.0049 109.549C73.3958 111.499 69.3391 112.868 64.8451 113.641C60.3425 114.417 53.8721 114.804 45.4211 114.804H0.851929L45.0933 0.635329Z" fill="#231F20"/>
<path d="M167.89 20.2069L158.092 45.4891C162.074 45.4891 165.048 45.0289 167 44.12C168.954 43.2018 170.9 40.2479 172.844 35.2339L175.264 28.9834C176.662 25.3824 176.802 23.0201 175.697 21.8949C174.588 20.7698 171.985 20.2069 167.89 20.2069ZM140.088 0.63533H165.112C181.79 0.63533 192.868 1.17975 198.358 2.25995C203.847 3.33726 207.592 6.09802 209.594 10.533C211.597 14.9743 210.713 22.057 206.945 31.7788C203.508 40.6556 199.881 46.6189 196.066 49.6761C192.254 52.7258 186.372 54.5592 178.42 55.1676C184.846 56.625 188.785 58.5778 190.243 61.0242C191.704 63.4707 192.325 65.7193 192.122 67.7643C191.913 69.8117 190.024 75.448 186.452 84.6663L174.773 114.804H142.008L156.72 76.8419C159.089 70.7252 159.981 66.9373 159.399 65.4794C158.807 64.0243 156.076 63.293 151.193 63.293L131.233 114.804H95.8466L140.088 0.63533Z" fill="#231F20"/>
<path d="M246.425 74.0305C249.715 61.0964 254.142 45.1016 259.719 26.0411C247.724 47.9264 239.314 63.9217 234.493 74.0305H246.425ZM293.626 0.635402L269.59 114.804H233.439L239.514 94.2808H226.955L216.912 114.804H180.324L242.586 0.635402H293.626Z" fill="#231F20"/>
<path d="M404.161 0.635585L364.02 52.181L361.812 114.804H325.408L330.027 65.8666L311.065 114.804H275.679L319.92 0.635585H355.305L338.118 44.9905L371.105 0.635585H404.161Z" fill="#231F20"/>
<path d="M412.143 0.635585H470.973L462.127 23.4691H438.682L430.304 45.0811H452.292L443.869 66.8263H421.881L412.138 91.9712H438.058L429.208 114.804H367.901L412.143 0.635585Z" fill="#231F20"/>
<path d="M63 133.024C84.1667 101.357 145.9 48.3241 223.5 89.5241C320.5 141.024 377.5 -9.50001 488.5 134.5" stroke="#231F20" stroke-width="3"/>
<path d="M63 131.024C84.1667 99.3574 145.9 46.3241 223.5 87.5241C320.5 139.024 377.5 -11.5 488.5 132.5" stroke="#231F20" stroke-width="3"/>
<path d="M63 132.024C84.1667 100.357 145.9 47.3241 223.5 88.5241C320.5 140.024 377.5 -10.5 488.5 133.5" stroke="#B1B0AE" stroke-width="2.5"/>
<path d="M203.28 120.355L190.475 160.872H180.245L185.626 143.845H182.604L177.223 160.872H166.993L179.799 120.355H190.029L185.448 134.845H188.47L193.05 120.355H203.28Z" fill="#DA2B27"/>
<path d="M211.176 145.066C209.239 146.253 208.015 147.246 207.512 148.045C207.007 148.849 206.52 149.999 206.044 151.507C205.501 153.227 205.258 154.339 205.319 154.838C205.376 155.339 205.728 155.59 206.375 155.59C206.989 155.59 207.446 155.393 207.758 155C208.067 154.608 208.484 153.578 209.012 151.906L211.176 145.066ZM209.521 140.511H200.311L201.011 138.287C201.824 135.72 202.737 133.742 203.749 132.348C204.762 130.959 206.306 129.729 208.375 128.661C210.439 127.597 212.857 127.061 215.624 127.061C218.936 127.061 221.244 127.665 222.543 128.877C223.842 130.084 224.381 131.572 224.167 133.33C223.951 135.093 222.975 138.715 221.239 144.205L215.972 160.872H206.434L207.369 157.909C206.399 159.095 205.344 159.981 204.211 160.576C203.078 161.168 201.86 161.462 200.55 161.462C198.834 161.462 197.419 160.967 196.302 159.972C195.187 158.979 195.16 156.806 196.218 153.453L197.08 150.726C197.867 148.237 198.78 146.542 199.829 145.645C200.875 144.74 203.091 143.69 206.479 142.485C210.111 141.187 212.108 140.31 212.479 139.858C212.85 139.405 213.251 138.494 213.69 137.109C214.238 135.375 214.472 134.246 214.388 133.72C214.304 133.196 213.972 132.934 213.389 132.934C212.729 132.934 212.249 133.157 211.947 133.594C211.649 134.039 211.203 135.184 210.618 137.034L209.521 140.511Z" fill="#DA2B27"/>
<path d="M239.628 127.654L237.883 132.023C240.293 128.9 242.877 127.244 245.64 127.062L241.949 138.738C240.156 138.738 238.761 138.988 237.76 139.49C236.766 139.989 236.026 140.688 235.553 141.579C235.075 142.474 234.329 144.531 233.312 147.749L229.164 160.872H219.371L229.872 127.654H239.628Z" fill="#DA2B27"/>
<path d="M257.548 136.014C257.935 134.793 258.088 133.977 258.02 133.56C257.942 133.143 257.603 132.934 256.998 132.934C256.411 132.934 255.956 133.12 255.626 133.499C255.31 133.872 254.939 134.71 254.527 136.014L249.385 152.284C248.957 153.635 248.771 154.526 248.836 154.951C248.897 155.378 249.21 155.589 249.765 155.589C250.402 155.589 250.905 155.35 251.266 154.876C251.633 154.401 252.106 153.236 252.691 151.384L257.548 136.014ZM272.293 120.355L259.485 160.872H249.692L250.454 158.462C249.196 159.46 247.969 160.211 246.775 160.71C245.58 161.211 244.413 161.462 243.28 161.462C241.756 161.462 240.566 161.05 239.707 160.225C238.848 159.399 238.436 158.444 238.461 157.357C238.488 156.275 238.889 154.507 239.665 152.054L244.575 136.517C245.38 133.968 246.113 132.157 246.764 131.089C247.419 130.025 248.438 129.086 249.829 128.274C251.224 127.467 252.702 127.062 254.276 127.062C255.492 127.062 256.533 127.287 257.403 127.74C258.275 128.192 258.979 128.87 259.524 129.768L262.498 120.355H272.293Z" fill="#DA2B27"/>
<path d="M305.18 127.654L290.773 160.872H280.125C280.848 156.815 281.863 151.465 283.169 144.817C281.972 147.742 280.665 150.689 279.255 153.658L275.92 160.872H265.273L271.615 127.654H280.033C279.833 128.531 278.545 134.872 276.174 146.685C276.676 145.47 279.419 139.126 284.402 127.654H292.502L288.479 146.685C290.55 141.127 293.299 134.786 296.739 127.654H305.18Z" fill="#DA2B27"/>
<path d="M313.162 145.066C311.228 146.253 310.004 147.246 309.499 148.045C308.994 148.849 308.511 149.999 308.033 151.507C307.487 153.227 307.246 154.339 307.305 154.838C307.364 155.339 307.715 155.59 308.361 155.59C308.975 155.59 309.434 155.393 309.744 155C310.054 154.608 310.472 153.578 311 151.906L313.162 145.066ZM311.51 140.511H302.3L303 138.287C303.815 135.72 304.725 133.742 305.74 132.348C306.75 130.959 308.297 129.729 310.364 128.661C312.43 127.597 314.845 127.061 317.613 127.061C320.926 127.061 323.232 127.665 324.534 128.877C325.831 130.084 326.373 131.572 326.154 133.33C325.941 135.093 324.961 138.715 323.228 144.205L317.958 160.872H308.42L309.358 157.909C308.389 159.095 307.332 159.981 306.2 160.576C305.066 161.168 303.847 161.462 302.536 161.462C300.821 161.462 299.41 160.967 298.291 159.972C297.175 158.979 297.148 156.806 298.208 153.453L299.068 150.726C299.856 148.237 300.77 146.542 301.817 145.645C302.864 144.74 305.08 143.69 308.466 142.485C312.102 141.187 314.099 140.31 314.468 139.858C314.837 139.405 315.242 138.494 315.678 137.109C316.224 135.375 316.461 134.246 316.374 133.72C316.293 133.196 315.96 132.934 315.378 132.934C314.718 132.934 314.241 133.157 313.935 133.594C313.635 134.039 313.194 135.184 312.607 137.034L311.51 140.511Z" fill="#DA2B27"/>
<path d="M341.617 127.654L339.87 132.023C342.281 128.9 344.867 127.244 347.628 127.062L343.937 138.738C342.145 138.738 340.748 138.988 339.752 139.49C338.755 139.989 338.013 140.688 337.544 141.579C337.062 142.474 336.315 144.531 335.3 147.749L331.15 160.872H321.358L331.86 127.654H341.617Z" fill="#DA2B27"/>
<path d="M358.313 139.432L359.078 137.009C359.62 135.294 359.879 134.184 359.86 133.685C359.837 133.186 359.551 132.934 359 132.934C358.318 132.934 357.826 133.148 357.531 133.574C357.235 134 356.793 135.142 356.202 137.009L355.437 139.432H358.313ZM366.427 144.854H353.722L351.451 152.036C350.978 153.539 350.777 154.505 350.855 154.938C350.923 155.373 351.264 155.59 351.865 155.59C352.616 155.59 353.208 155.303 353.644 154.726C354.077 154.152 354.559 153.036 355.078 151.385L356.461 147.006H365.744L364.971 149.457C364.325 151.507 363.696 153.084 363.101 154.182C362.5 155.286 361.544 156.459 360.229 157.71C358.909 158.961 357.444 159.899 355.833 160.523C354.218 161.15 352.343 161.462 350.204 161.462C348.133 161.462 346.404 161.154 345.017 160.537C343.619 159.92 342.654 159.073 342.118 157.997C341.576 156.924 341.34 155.737 341.408 154.443C341.475 153.152 341.899 151.273 342.681 148.806L345.74 139.12C346.66 136.218 347.76 133.929 349.053 132.253C350.345 130.576 351.992 129.294 354.008 128.401C356.02 127.51 358.154 127.062 360.402 127.062C363.15 127.062 365.248 127.602 366.701 128.679C368.147 129.752 368.948 131.18 369.107 132.956C369.266 134.734 368.838 137.23 367.819 140.449L366.427 144.854Z" fill="#DA2B27"/>
<path d="M389.936 140.736C391.506 139.241 392.502 137.817 392.93 136.458C393.116 135.874 393.12 135.337 392.957 134.85C392.789 134.364 392.416 134.12 391.833 134.12C391.301 134.12 390.841 134.303 390.445 134.672C390.059 135.041 389.74 135.606 389.503 136.358C389.008 137.934 389.149 139.394 389.936 140.736ZM387.233 156.346L385.74 150.912C384.165 152.045 383.173 153.271 382.759 154.588C382.459 155.537 382.422 156.249 382.659 156.724C382.891 157.198 383.378 157.437 384.129 157.437C384.926 157.437 385.959 157.07 387.233 156.346V156.346ZM402.85 147.802L400.693 154.636L397.326 156.466L398.655 163.204H389.59L389.098 160.95C385.403 163.008 382.199 164.038 379.478 164.038C376.629 164.038 374.745 163.066 373.831 161.111C372.907 159.161 372.88 156.811 373.753 154.057C374.445 151.858 375.451 150.13 376.752 148.879C378.058 147.629 379.743 146.612 381.804 145.831C379.819 143.91 379.346 141.319 380.379 138.048C381.271 135.227 382.905 132.961 385.298 131.242C387.683 129.526 390.491 128.665 393.726 128.665C396.639 128.665 398.659 129.507 399.801 131.194C400.943 132.88 401.103 135.02 400.279 137.622C399.415 140.357 397.63 142.786 394.923 144.902L396.32 151.364L402.85 147.802Z" fill="#DA2B27"/>
<path d="M329.226 176.94H319.724L320.675 173.922C321.122 172.514 321.285 171.614 321.162 171.229C321.039 170.842 320.698 170.651 320.129 170.651C319.51 170.651 318.96 170.91 318.481 171.427C318.004 171.944 317.594 172.726 317.262 173.778C316.834 175.134 316.693 176.15 316.83 176.835C316.957 177.518 317.658 178.343 318.94 179.311C322.609 182.099 324.752 184.384 325.367 186.175C325.986 187.961 325.671 190.835 324.411 194.81C323.501 197.698 322.499 199.826 321.412 201.195C320.325 202.561 318.691 203.71 316.525 204.634C314.354 205.559 312.02 206.024 309.526 206.024C306.791 206.024 304.63 205.489 303.024 204.424C301.43 203.356 300.593 201.996 300.516 200.347C300.438 198.696 300.88 196.352 301.84 193.316L302.677 190.667H312.179L310.623 195.6C310.14 197.115 309.963 198.092 310.095 198.528C310.222 198.963 310.627 199.179 311.305 199.179C311.983 199.179 312.57 198.901 313.075 198.354C313.585 197.798 314.008 196.98 314.35 195.894C315.105 193.507 315.287 191.942 314.891 191.203C314.477 190.471 313.271 189.245 311.264 187.53C309.267 185.8 307.978 184.541 307.401 183.76C306.823 182.974 306.482 181.888 306.377 180.502C306.272 179.12 306.559 177.348 307.242 175.195C308.22 172.093 309.321 169.822 310.549 168.389C311.774 166.949 313.366 165.828 315.346 165.022C317.317 164.21 319.519 163.806 321.949 163.806C324.607 163.806 326.732 164.248 328.325 165.133C329.917 166.019 330.805 167.136 330.987 168.48C331.169 169.826 330.75 172.111 329.731 175.337L329.226 176.94Z" fill="#DA2B27"/>
<path d="M344.043 181.131C344.575 179.434 344.825 178.361 344.789 177.917C344.752 177.476 344.439 177.252 343.852 177.252C343.269 177.252 342.809 177.476 342.472 177.917C342.135 178.361 341.699 179.434 341.166 181.131L336.424 196.129C335.929 197.698 335.701 198.718 335.747 199.194C335.792 199.669 336.097 199.908 336.666 199.908C337.253 199.908 337.704 199.692 338.031 199.256C338.354 198.823 338.746 197.89 339.196 196.454L344.043 181.131ZM353.039 183.637L350.472 191.769C349.526 194.758 348.688 196.947 347.956 198.336C347.228 199.73 346.191 201.033 344.857 202.24C343.519 203.448 342.013 204.343 340.334 204.916C338.654 205.493 336.848 205.78 334.905 205.78C332.738 205.78 330.987 205.534 329.635 205.042C328.288 204.552 327.35 203.809 326.832 202.818C326.314 201.823 326.099 200.62 326.19 199.213C326.277 197.805 326.769 195.691 327.66 192.871L330.35 184.368C331.324 181.28 332.411 178.869 333.603 177.136C334.795 175.402 336.402 174.008 338.417 172.958C340.43 171.906 342.75 171.38 345.371 171.38C347.569 171.38 349.348 171.719 350.714 172.394C352.074 173.07 353.016 173.947 353.531 175.034C354.045 176.12 354.277 177.236 354.227 178.386C354.176 179.536 353.785 181.288 353.039 183.637Z" fill="#DA2B27"/>
<path d="M374.814 164.673L373.185 169.817C371.151 169.817 369.922 169.913 369.498 170.104C369.066 170.295 368.716 170.833 368.434 171.728L368.102 172.771H372.252L370.595 178.018H368.229L359.637 205.19H349.844L358.436 178.018H356.434L358.09 172.771H360.092C360.784 170.589 361.316 169.131 361.695 168.396C362.072 167.662 362.636 167.011 363.397 166.437C364.151 165.861 365.098 165.426 366.232 165.127C367.364 164.826 369.026 164.673 371.215 164.673H374.814Z" fill="#DA2B27"/>
<path d="M386.09 167.558L384.443 172.771H387.101L385.444 178.018H382.787L377.162 195.803C376.47 197.992 376.197 199.213 376.333 199.465C376.475 199.712 377.344 199.839 378.946 199.839L377.253 205.19H373.298C371.064 205.19 369.503 205.094 368.607 204.903C367.715 204.712 367.009 204.269 366.505 203.575C365.994 202.882 365.795 202.088 365.899 201.195C365.999 200.304 366.577 198.202 367.619 194.896L372.957 178.018H370.845L372.502 172.771H374.614L376.261 167.558H386.09Z" fill="#DA2B27"/>
<path d="M421.184 171.972L406.777 205.19H396.129C396.853 201.133 397.867 195.782 399.173 189.136C397.977 192.061 396.671 195.007 395.26 197.976L391.924 205.19H381.276L387.619 171.972H396.038C395.838 172.849 394.55 179.191 392.178 191.003C392.68 189.787 395.424 183.443 400.407 171.972H408.506L404.484 191.003C406.554 185.445 409.303 179.104 412.743 171.972H421.184Z" fill="#DA2B27"/>
<path d="M429.167 189.384C427.232 190.571 426.009 191.563 425.504 192.363C424.998 193.168 424.516 194.318 424.039 195.826C423.492 197.545 423.251 198.657 423.31 199.156C423.369 199.657 423.719 199.908 424.366 199.908C424.98 199.908 425.44 199.712 425.749 199.317C426.058 198.926 426.477 197.896 427.005 196.224L429.167 189.384ZM427.515 184.828H418.304L419.005 182.605C419.819 180.038 420.73 178.061 421.744 176.666C422.755 175.277 424.302 174.047 426.368 172.979C428.434 171.915 430.851 171.38 433.618 171.38C436.93 171.38 439.237 171.983 440.538 173.195C441.835 174.402 442.377 175.89 442.158 177.648C441.945 179.411 440.967 183.033 439.233 188.523L433.963 205.19H424.425L425.362 202.226C424.393 203.413 423.338 204.299 422.204 204.894C421.071 205.486 419.851 205.78 418.541 205.78C416.825 205.78 415.414 205.286 414.295 204.29C413.18 203.297 413.153 201.124 414.214 197.771L415.073 195.044C415.86 192.555 416.775 190.86 417.822 189.962C418.869 189.059 421.085 188.008 424.471 186.803C428.106 185.504 430.104 184.628 430.473 184.177C430.841 183.723 431.246 182.812 431.683 181.428C432.229 179.694 432.466 178.564 432.379 178.038C432.298 177.514 431.965 177.252 431.382 177.252C430.723 177.252 430.245 177.476 429.94 177.912C429.64 178.357 429.198 179.502 428.611 181.352L427.515 184.828Z" fill="#DA2B27"/>
<path d="M457.621 171.972L455.875 176.341C458.286 173.218 460.871 171.562 463.633 171.38L459.942 183.057C458.149 183.057 456.752 183.307 455.756 183.807C454.759 184.307 454.018 185.006 453.549 185.897C453.067 186.791 452.321 188.849 451.306 192.068L447.155 205.19H437.362L447.865 171.972H457.621Z" fill="#DA2B27"/>
<path d="M474.318 183.751L475.082 181.327C475.624 179.612 475.884 178.503 475.866 178.004C475.842 177.505 475.556 177.252 475.005 177.252C474.323 177.252 473.83 177.466 473.535 177.892C473.239 178.318 472.798 179.459 472.207 181.327L471.442 183.751H474.318ZM482.432 189.172H469.726L467.456 196.354C466.983 197.858 466.782 198.823 466.859 199.256C466.928 199.692 467.269 199.908 467.87 199.908C468.62 199.908 469.212 199.621 469.649 199.045C470.081 198.47 470.563 197.354 471.083 195.703L472.466 191.325H481.749L480.976 193.775C480.33 195.826 479.701 197.402 479.106 198.5C478.505 199.605 477.549 200.777 476.234 202.028C474.914 203.279 473.448 204.217 471.837 204.841C470.222 205.468 468.348 205.78 466.209 205.78C464.139 205.78 462.409 205.472 461.021 204.855C459.624 204.238 458.66 203.39 458.122 202.315C457.581 201.243 457.344 200.055 457.412 198.762C457.48 197.47 457.904 195.591 458.687 193.124L461.744 183.439C462.664 180.537 463.765 178.248 465.058 176.571C466.35 174.895 467.997 173.612 470.013 172.719C472.024 171.828 474.159 171.38 476.407 171.38C479.154 171.38 481.253 171.919 482.705 172.997C484.152 174.07 484.953 175.498 485.112 177.275C485.272 179.052 484.843 181.548 483.825 184.767L482.432 189.172Z" fill="#DA2B27"/>
<path d="M61.9217 132.44L49.6899 144.055L27.2639 143.811L23.9146 143.665C23.9146 143.665 8.18782 156.202 7.75115 157.66C7.31449 159.118 7.75115 157.66 7.75115 157.66C7.75115 157.66 -3.31639 179.674 13.8673 189.733C13.8673 189.733 21.0026 193.814 41.3893 192.94C41.3893 192.94 55.5146 192.793 70.3675 180.986C70.3675 180.986 83.4738 163.637 84.2014 157.514C84.9296 151.391 84.2014 157.514 84.2014 157.514L85.8035 144.685C85.8035 144.685 85.9486 139.583 81.1436 137.834C76.338 136.084 81.1436 137.834 81.1436 137.834C81.1436 137.834 68.6197 132.002 61.9217 132.44" fill="#B1B0AE"/>
<path d="M25.0321 143.569C25.0321 143.569 37.5554 130.157 62.3104 132.49L49.6898 144.055L25.0321 143.569Z" fill="#DA2B27"/>
<path d="M7.45965 158.535C7.45965 158.535 -4.18972 183.61 17.6533 191.19C17.6533 191.19 36.5837 194.98 51.7281 190.898C51.7281 190.898 68.0373 185.651 75.028 175.154C82.0175 164.658 84.3471 156.785 84.3471 156.785C84.3471 156.785 85.8035 149.496 85.512 146.872" stroke="#231F20" stroke-width="5.33333"/>
<path d="M79.9786 157.369C71.5322 149.496 50.2722 143.956 50.2722 143.956L24.6432 143.567" stroke="#231F20" stroke-width="5.33333"/>
<path d="M62.7957 132.294C62.7957 132.294 51.1458 141.041 50.2719 143.957" stroke="#231F20" stroke-width="5.33333"/>
<path d="M43.8674 133.323C37.5554 133.46 9.20731 153.286 7.4595 158.535C5.71227 163.783 3.67412 179.236 19.6919 184.485C35.7102 189.733 62.2131 181.86 70.3674 172.822C70.3674 172.822 82.8913 152.995 85.5124 146.872C85.5124 146.872 87.2596 140.458 81.1435 137.833C81.1435 137.833 70.6589 132.585 63.6694 132.294C63.6694 132.294 44.6457 132.993 43.8674 133.323Z" stroke="#231F20" stroke-width="5.33333"/>
</svg>
